<svg width="490" height="214" viewBox="0 0 490 214" fill="none" xmlns="http://www.w3.org/2000/svg">
<path d="M8.99894 45L26.5 21L42.5 16L51 0.5L65.9989 16L82.4989 21L94.9989 35L106.999 45L110.999 52L125.499 60H132.499L137.499 63.5L125.499 77.5L71.9989 56.5H55C124.501 98.5 75.5279 94.5712 68 172.5H31C31 172.5 -6.00003 77.5 8.99894 45Z" fill="url(#paint0_linear)"/>
<rect x="13" y="176" width="70" height="14" fill="white"/>
<rect y="194" width="96" height="14" fill="white"/>
<path d="M217.281 89.5H202.25L199.625 98H187.906L204.594 52.5H214.906L231.719 98H219.938L217.281 89.5ZM204.875 81.0312H214.656L209.75 65.25L204.875 81.0312ZM235.062 98V52.5H249.719C253.74 52.5 257.354 53.4167 260.562 55.25C263.771 57.0625 266.271 59.6354 268.062 62.9688C269.875 66.2812 270.792 70 270.812 74.125V76.2188C270.812 80.3854 269.927 84.125 268.156 87.4375C266.406 90.7292 263.927 93.3125 260.719 95.1875C257.531 97.0417 253.969 97.9792 250.031 98H235.062ZM246.031 60.9688V89.5625H249.844C252.99 89.5625 255.406 88.4479 257.094 86.2188C258.781 83.9688 259.625 80.6354 259.625 76.2188V74.25C259.625 69.8542 258.781 66.5417 257.094 64.3125C255.406 62.0833 252.948 60.9688 249.719 60.9688H246.031ZM293.406 85.625L302.469 52.5H314.719L299.406 98H287.406L272.219 52.5H284.375L293.406 85.625ZM329.75 98H318.812V52.5H329.75V98ZM374.188 82.5938C374.042 85.7604 373.188 88.5625 371.625 91C370.062 93.4167 367.865 95.2917 365.031 96.625C362.219 97.9583 359 98.625 355.375 98.625C349.396 98.625 344.688 96.6771 341.25 92.7812C337.812 88.8854 336.094 83.3854 336.094 76.2812V74.0312C336.094 69.5729 336.865 65.6771 338.406 62.3438C339.969 58.9896 342.208 56.4062 345.125 54.5938C348.042 52.7604 351.417 51.8438 355.25 51.8438C360.771 51.8438 365.208 53.3021 368.562 56.2188C371.917 59.1146 373.823 63.1146 374.281 68.2188H363.344C363.26 65.4479 362.562 63.4583 361.25 62.25C359.938 61.0417 357.938 60.4375 355.25 60.4375C352.521 60.4375 350.521 61.4583 349.25 63.5C347.979 65.5417 347.312 68.8021 347.25 73.2812V76.5C347.25 81.3542 347.854 84.8229 349.062 86.9062C350.292 88.9896 352.396 90.0312 355.375 90.0312C357.896 90.0312 359.823 89.4375 361.156 88.25C362.49 87.0625 363.198 85.1771 363.281 82.5938H374.188ZM407.594 78.7188H390.344V89.5625H410.719V98H379.375V52.5H410.781V60.9688H390.344V70.5625H407.594V78.7188Z" fill="black"/>
<path d="M137.727 169H131.82V134.875H137.727V169ZM184.039 169H178.109L162.898 144.789V169H156.969V134.875H162.898L178.156 159.18V134.875H184.039V169ZM220.836 160.211C220.836 158.711 220.305 157.555 219.242 156.742C218.195 155.93 216.297 155.109 213.547 154.281C210.797 153.453 208.609 152.531 206.984 151.516C203.875 149.562 202.32 147.016 202.32 143.875C202.32 141.125 203.438 138.859 205.672 137.078C207.922 135.297 210.836 134.406 214.414 134.406C216.789 134.406 218.906 134.844 220.766 135.719C222.625 136.594 224.086 137.844 225.148 139.469C226.211 141.078 226.742 142.867 226.742 144.836H220.836C220.836 143.055 220.273 141.664 219.148 140.664C218.039 139.648 216.445 139.141 214.367 139.141C212.43 139.141 210.922 139.555 209.844 140.383C208.781 141.211 208.25 142.367 208.25 143.852C208.25 145.102 208.828 146.148 209.984 146.992C211.141 147.82 213.047 148.633 215.703 149.43C218.359 150.211 220.492 151.109 222.102 152.125C223.711 153.125 224.891 154.281 225.641 155.594C226.391 156.891 226.766 158.414 226.766 160.164C226.766 163.008 225.672 165.273 223.484 166.961C221.312 168.633 218.359 169.469 214.625 169.469C212.156 169.469 209.883 169.016 207.805 168.109C205.742 167.188 204.133 165.922 202.977 164.312C201.836 162.703 201.266 160.828 201.266 158.688H207.195C207.195 160.625 207.836 162.125 209.117 163.188C210.398 164.25 212.234 164.781 214.625 164.781C216.688 164.781 218.234 164.367 219.266 163.539C220.312 162.695 220.836 161.586 220.836 160.211ZM268.883 134.875V157.68C268.883 161.305 267.719 164.18 265.391 166.305C263.078 168.414 259.992 169.469 256.133 169.469C252.227 169.469 249.125 168.43 246.828 166.352C244.531 164.258 243.383 161.359 243.383 157.656V134.875H249.289V157.703C249.289 159.984 249.867 161.727 251.023 162.93C252.18 164.133 253.883 164.734 256.133 164.734C260.695 164.734 262.977 162.328 262.977 157.516V134.875H268.883ZM299.727 155.852H293.117V169H287.188V134.875H299.188C303.125 134.875 306.164 135.758 308.305 137.523C310.445 139.289 311.516 141.844 311.516 145.188C311.516 147.469 310.961 149.383 309.852 150.93C308.758 152.461 307.227 153.641 305.258 154.469L312.922 168.695V169H306.57L299.727 155.852ZM293.117 151.094H299.211C301.211 151.094 302.773 150.594 303.898 149.594C305.023 148.578 305.586 147.195 305.586 145.445C305.586 143.617 305.062 142.203 304.016 141.203C302.984 140.203 301.438 139.688 299.375 139.656H293.117V151.094ZM352.344 139.656H341.703V169H335.82V139.656H325.273V134.875H352.344V139.656ZM387.336 153.766H373.32V164.266H389.703V169H367.391V134.875H389.539V139.656H373.32V149.078H387.336V153.766ZM432.523 157.891C432.18 161.531 430.836 164.375 428.492 166.422C426.148 168.453 423.031 169.469 419.141 169.469C416.422 169.469 414.023 168.828 411.945 167.547C409.883 166.25 408.289 164.414 407.164 162.039C406.039 159.664 405.453 156.906 405.406 153.766V150.578C405.406 147.359 405.977 144.523 407.117 142.07C408.258 139.617 409.891 137.727 412.016 136.398C414.156 135.07 416.625 134.406 419.422 134.406C423.188 134.406 426.219 135.43 428.516 137.477C430.812 139.523 432.148 142.414 432.523 146.148H426.617C426.336 143.695 425.617 141.93 424.461 140.852C423.32 139.758 421.641 139.211 419.422 139.211C416.844 139.211 414.859 140.156 413.469 142.047C412.094 143.922 411.391 146.68 411.359 150.32V153.344C411.359 157.031 412.016 159.844 413.328 161.781C414.656 163.719 416.594 164.688 419.141 164.688C421.469 164.688 423.219 164.164 424.391 163.117C425.562 162.07 426.305 160.328 426.617 157.891H432.523ZM476.891 169H470.984V153.836H455.727V169H449.797V134.875H455.727V149.078H470.984V134.875H476.891V169Z" fill="#515151"/>
<g filter="url(#filter0_d)">
<rect x="128" y="201" width="358" height="7" rx="3.5" fill="url(#paint1_linear)"/>
</g>
<defs>
<filter id="filter0_d" x="124" y="199" width="366" height="15" filterUnits="userSpaceOnUse" color-interpolation-filters="sRGB">
<feFlood flood-opacity="0" result="BackgroundImageFix"/>
<feColorMatrix in="SourceAlpha" type="matrix" values="0 0 0 0 0 0 0 0 0 0 0 0 0 0 0 0 0 0 127 0"/>
<feOffset dy="2"/>
<feGaussianBlur stdDeviation="2"/>
<feColorMatrix type="matrix" values="0 0 0 0 0 0 0 0 0 0 0 0 0 0 0 0 0 0 0.04 0"/>
<feBlend mode="normal" in2="BackgroundImageFix" result="effect1_dropShadow"/>
<feBlend mode="normal" in="SourceGraphic" in2="effect1_dropShadow" result="shape"/>
</filter>
<linearGradient id="paint0_linear" x1="39.5" y1="62.5" x2="71.4596" y2="172.5" gradientUnits="userSpaceOnUse">
<stop stop-color="white"/>
<stop offset="1" stop-color="white" stop-opacity="0"/>
</linearGradient>
<linearGradient id="paint1_linear" x1="307" y1="225.5" x2="307" y2="200" gradientUnits="userSpaceOnUse">
<stop stop-color="#C4C4C4"/>
<stop offset="1" stop-color="#C4C4C4" stop-opacity="0"/>
</linearGradient>
</defs>
</svg>
