<svg width="694" height="641" viewBox="0 0 694 641" fill="none" xmlns="http://www.w3.org/2000/svg">
<g filter="url(#filter0_d)">
<path d="M91.8392 220.865C149.64 150.845 210.278 169.28 288.208 122.517C446.562 27.4936 465.996 183.055 577.809 280.793C691.951 380.566 568.184 411.766 552.36 456.22C540.124 542.235 415.29 643.551 309.885 527.843C272.316 475.542 258.893 449.662 179.927 393.565C68.5594 318.721 52.0069 269.118 91.8392 220.865Z" fill="#4AADB3"/>
<path d="M639.531 299.72C615.41 387.252 552.535 395.221 500.535 469.759C394.871 621.221 313.534 487.201 171.533 443.721C26.5739 399.335 126.768 320.259 123.033 273.221C99.0328 189.721 171.533 46.2207 315.033 108.721C370.702 141.091 393.533 159.221 488.533 178.13C620.767 200.899 656.153 239.399 639.531 299.72Z" fill="#08A7B0"/>
<g filter="url(#filter1_d)">
<path d="M225.825 208.006C225.783 206.627 226.688 205.397 228.017 205.025L401.813 156.463C403.725 155.928 405.62 157.366 405.62 159.352V297.693C405.62 298.986 404.791 300.134 403.564 300.541L234.133 356.696L233.98 350.509C233.947 349.184 234.788 347.994 236.049 347.583L399.64 294.219C400.875 293.817 401.71 292.666 401.71 291.367V166.955C401.71 164.978 399.83 163.541 397.922 164.06L232.772 208.987C231.439 209.35 230.526 210.575 230.56 211.956L234.133 356.696L360.794 433.819C361.586 434.301 362.557 434.39 363.424 434.06L538.917 367.106C540.769 366.4 542.754 367.767 542.754 369.749V369.749C542.754 370.921 542.031 371.972 540.937 372.391L363.419 440.375C362.555 440.705 361.587 440.619 360.795 440.141L231.9 362.277C231.028 361.75 230.483 360.818 230.452 359.8L225.825 208.006Z" fill="#033F43"/>
</g>
<path d="M405.061 298.543L540.799 365.643L362.05 434.32L233.854 356.959L405.061 298.543Z" fill="#EAEAEA"/>
<path d="M431.185 362.748L479.354 386.155L415.922 410.112L370.429 383.126L431.185 362.748Z" fill="#D9D9D9"/>
<path d="M272.678 358.012L285.523 363.733L268.608 369.59L256.477 362.993L272.678 358.012Z" fill="#D9D9D9"/>
<path d="M293.346 351.17L306.191 356.892L289.276 362.748L277.145 356.152L293.346 351.17Z" fill="#D9D9D9"/>
<path d="M313.456 344.329L326.301 350.05L309.385 355.907L297.254 349.31L313.456 344.329Z" fill="#D9D9D9"/>
<path d="M333.564 336.961L346.409 342.683L329.494 348.539L317.362 341.942L333.564 336.961Z" fill="#D9D9D9"/>
<path d="M353.674 330.12L366.519 335.841L349.604 341.698L337.473 335.101L353.674 330.12Z" fill="#D9D9D9"/>
<path d="M373.783 323.278L386.628 329L369.712 334.856L357.581 328.26L373.783 323.278Z" fill="#D9D9D9"/>
<path d="M393.892 315.911L406.737 321.632L389.822 327.489L377.69 320.892L393.892 315.911Z" fill="#D9D9D9"/>
<path d="M414.56 309.069L427.405 314.79L410.49 320.647L398.358 314.05L414.56 309.069Z" fill="#D9D9D9"/>
<path d="M287.202 366.432L300.047 372.154L283.131 378.01L271 371.413L287.202 366.432Z" fill="#D9D9D9"/>
<path d="M307.87 359.591L320.715 365.312L303.799 371.168L291.668 364.572L307.87 359.591Z" fill="#D9D9D9"/>
<path d="M327.979 352.749L340.824 358.471L323.909 364.327L311.777 357.73L327.979 352.749Z" fill="#D9D9D9"/>
<path d="M348.088 345.381L360.933 351.103L344.018 356.959L331.887 350.363L348.088 345.381Z" fill="#D9D9D9"/>
<path d="M368.198 338.54L381.043 344.261L364.128 350.118L351.996 343.521L368.198 338.54Z" fill="#D9D9D9"/>
<path d="M388.306 331.698L401.151 337.42L384.236 343.276L372.104 336.68L388.306 331.698Z" fill="#D9D9D9"/>
<path d="M408.417 324.331L421.262 330.052L404.346 335.909L392.215 329.312L408.417 324.331Z" fill="#D9D9D9"/>
<path d="M429.083 317.489L441.929 323.211L425.013 329.067L412.882 322.47L429.083 317.489Z" fill="#D9D9D9"/>
<path d="M301.724 374.852L314.569 380.574L297.654 386.43L285.522 379.833L301.724 374.852Z" fill="#D9D9D9"/>
<path d="M322.392 368.011L335.237 373.733L318.322 379.589L306.19 372.992L322.392 368.011Z" fill="#D9D9D9"/>
<path d="M342.501 361.169L355.346 366.891L338.431 372.747L326.3 366.151L342.501 361.169Z" fill="#D9D9D9"/>
<path d="M362.611 353.802L375.456 359.523L358.541 365.379L346.409 358.783L362.611 353.802Z" fill="#D9D9D9"/>
<path d="M382.72 346.96L395.565 352.682L378.65 358.538L366.519 351.941L382.72 346.96Z" fill="#D9D9D9"/>
<path d="M402.829 340.119L415.674 345.84L398.758 351.697L386.627 345.1L402.829 340.119Z" fill="#D9D9D9"/>
<path d="M422.939 332.751L435.784 338.473L418.869 344.329L406.737 337.732L422.939 332.751Z" fill="#D9D9D9"/>
<path d="M443.607 325.91L456.452 331.631L439.537 337.488L427.405 330.891L443.607 325.91Z" fill="#D9D9D9"/>
<path d="M317.365 383.799L330.21 389.52L313.295 395.377L301.163 388.78L317.365 383.799Z" fill="#D9D9D9"/>
<path d="M338.033 376.958L350.878 382.679L333.962 388.535L321.831 381.939L338.033 376.958Z" fill="#D9D9D9"/>
<path d="M358.142 370.116L370.987 375.838L354.072 381.694L341.94 375.097L358.142 370.116Z" fill="#D9D9D9"/>
<path d="M378.251 362.748L391.096 368.47L374.181 374.326L362.05 367.729L378.251 362.748Z" fill="#D9D9D9"/>
<path d="M398.361 355.907L411.206 361.628L394.291 367.485L382.159 360.888L398.361 355.907Z" fill="#D9D9D9"/>
<path d="M418.469 349.065L431.314 354.787L414.399 360.643L402.268 354.046L418.469 349.065Z" fill="#D9D9D9"/>
<path d="M438.579 341.698L451.424 347.419L434.508 353.275L422.377 346.679L438.579 341.698Z" fill="#D9D9D9"/>
<path d="M459.248 334.856L472.093 340.578L455.177 346.434L443.046 339.837L459.248 334.856Z" fill="#D9D9D9"/>
<path d="M401.989 160.925V293.544L234.133 348.539L230.502 208.815L401.989 160.925Z" fill="#F8F7F7"/>
</g>
<defs>
<filter id="filter0_d" x="-0.000976562" y="0" width="693.079" height="640.706" filterUnits="userSpaceOnUse" color-interpolation-filters="sRGB">
<feFlood flood-opacity="0" result="BackgroundImageFix"/>
<feColorMatrix in="SourceAlpha" type="matrix" values="0 0 0 0 0 0 0 0 0 0 0 0 0 0 0 0 0 0 127 0"/>
<feOffset dy="4"/>
<feGaussianBlur stdDeviation="2"/>
<feColorMatrix type="matrix" values="0 0 0 0 0 0 0 0 0 0 0 0 0 0 0 0 0 0 0.25 0"/>
<feBlend mode="normal" in2="BackgroundImageFix" result="effect1_dropShadow"/>
<feBlend mode="normal" in="SourceGraphic" in2="effect1_dropShadow" result="shape"/>
</filter>
<filter id="filter1_d" x="216.824" y="151.35" width="334.93" height="302.223" filterUnits="userSpaceOnUse" color-interpolation-filters="sRGB">
<feFlood flood-opacity="0" result="BackgroundImageFix"/>
<feColorMatrix in="SourceAlpha" type="matrix" values="0 0 0 0 0 0 0 0 0 0 0 0 0 0 0 0 0 0 127 0"/>
<feOffset dy="4"/>
<feGaussianBlur stdDeviation="4.5"/>
<feColorMatrix type="matrix" values="0 0 0 0 0 0 0 0 0 0 0 0 0 0 0 0 0 0 0.25 0"/>
<feBlend mode="normal" in2="BackgroundImageFix" result="effect1_dropShadow"/>
<feBlend mode="normal" in="SourceGraphic" in2="effect1_dropShadow" result="shape"/>
</filter>
</defs>
</svg>
